
        <svg xmlns="http://www.w3.org/2000/svg" xmlns:xlink="http://www.w3.org/1999/xlink" version="1.1" width="3307.6923076923076" 
        height="1461.5384615384614" viewBox="0 0 3307.6923076923076 1461.5384615384614">
			<rect fill="#ffffff" width="3307.6923076923076" height="1461.5384615384614"/>
			<g transform="scale(15.384615384615385) translate(10, 10)">
				<defs id="SvgjsDefs1438"></defs><g id="SvgjsG1439" featureKey="v37d4h-0" transform="matrix(0.55,0,0,0.55,20,20)" fill="#fc4c69"><g xmlns="http://www.w3.org/2000/svg"><path d="M57.97,17.951v16.066H41.92V17.951H57.97z M61.725,14.191h-23.56v23.586h23.56V14.191z M57.97,48.155v19.826   c0,8.334-5.366,11.198-7.731,12.034c-0.047,0.017-0.093,0.033-0.141,0.05c0.147-0.148,0.29-0.301,0.43-0.457   c4.487-7.052,2.757-15.387,2.757-15.387H41.92V48.155H57.97z M61.725,44.396h-23.56v23.586h11.759   c0.607,5.462-0.769,12.44-11.759,12.44c0,3.874,0,5,0,5.008c22.857,0,23.56-11.353,23.56-17.448V44.396z M32.092,100h-6.913   c-8.111,0-13.849-2.404-17.054-7.146c-2.57-3.804-2.868-8.221-2.868-11.213V61.085c-0.015-0.171-0.105-3.124-3.379-3.124H0V42.039   h1.878c3.899,0,3.379-3.204,3.379-3.204l0-20.476c0-2.992,0.298-7.409,2.868-11.212C11.33,2.404,17.068,0,25.179,0h6.914v15.919   h-6.914c-1.651,0-4.019,0.397-4.019,2.671c0,0.075-0.001,20.21-0.001,20.21c0.005,0.646-0.047,6.209-3.21,11.199   c3.163,4.99,3.215,10.554,3.209,11.215c0,0,0.003,20.3,0.003,20.346c0,2.559,2.366,2.52,4.018,2.52h6.913V100z M9.012,61.175   l0,20.466c0,2.709,0.252,6.191,2.223,9.105c2.464,3.646,7.155,5.494,13.944,5.494h3.158v-8.4h-3.158   c-2.713,0-7.773-0.823-7.773-6.288c-0.002,0-0.002-0.032-0.002-0.032l0-0.088V61.199C17.403,54.055,13.32,50,13.32,50   s3.797-4.167,4.083-11.184V18.445c-0.008-2.11,0.886-3.458,1.638-4.218c1.359-1.372,3.424-2.067,6.137-2.067h3.158v-8.4h-3.158   c-6.789,0-11.48,1.848-13.944,5.494c-1.97,2.915-2.223,6.397-2.223,9.105l0.001,20.584c0,0.02-0.343,6.648-5.258,6.648v8.816   c5.307,1.29,5.258,6.629,5.258,6.656L9.012,61.175z M67.908,100V84.08h6.914c1.65,0,4.018,0.039,4.018-2.52   c0-0.046,0.002-20.346,0.002-20.346C78.836,60.554,78.889,54.99,82.051,50c-3.162-4.99-3.215-10.553-3.209-11.199   c0,0-0.002-20.135-0.002-20.21c0-2.274-2.367-2.671-4.019-2.671h-6.913V0h6.913c8.11,0,13.849,2.404,17.054,7.147   c2.57,3.803,2.868,8.22,2.868,11.212v20.476c0,0-0.521,3.204,3.38,3.204H100v15.922h-1.877c-3.275,0-3.365,2.953-3.38,3.124   l0.001,20.556c0,2.992-0.298,7.409-2.868,11.213C88.671,97.596,82.934,100,74.822,100H67.908z M90.988,61.175l-0.001-0.11   c-0.001-0.027-0.05-5.366,5.257-6.656v-8.816c-4.914,0-5.258-6.629-5.258-6.648l0.001-20.584c0-2.708-0.253-6.191-2.222-9.105   C86.301,5.608,81.609,3.76,74.821,3.76h-3.158v8.4h3.158c2.712,0,4.777,0.695,6.137,2.067c0.753,0.76,1.646,2.107,1.636,4.218   c0.003,0,0.003,20.371,0.003,20.371C82.883,45.833,86.68,50,86.68,50s-4.082,4.055-4.082,11.199v20.232v0.088v0.032   c-0.003,5.465-5.063,6.288-7.775,6.288h-3.158v8.4h3.158c6.788,0,11.479-1.848,13.943-5.494c1.97-2.914,2.223-6.396,2.223-9.105   V61.175z"></path></g></g><g id="SvgjsG1440" featureKey="UxBHKT-0" transform="matrix(0.9844458132324413,0,0,0.9844458132324413,94.15337664521503,33.1959043187648)" fill="#65605f"><path d="M9.72 18.9 q-0.38 0.52 -1.31 0.93 t-2.03 0.41 q-1.7 0 -2.95 -0.76 t-1.91 -2.07 t-0.66 -2.91 t0.66 -2.91 t1.91 -2.07 t2.95 -0.76 q1.14 0 2.01 0.39 t1.33 0.99 l0 -5.26 l2.96 0 l0 15.12 l-2.96 0 l0 -1.1 z M9.02 12.25 q-0.82 -0.87 -2.2 -0.87 q-1.4 0 -2.21 0.87 t-0.81 2.25 q0 1.34 0.83 2.22 t2.19 0.88 q1.4 0 2.21 -0.83 t0.81 -2.27 q0 -1.38 -0.82 -2.25 z M18.45 19.74 q-1.37 -0.54 -2.35 -1.83 t-0.98 -3.37 t0.99 -3.36 t2.37 -1.82 t2.62 -0.54 q1.44 0 2.74 0.64 t2.13 1.88 t0.87 2.94 q0 0.52 -0.02 0.9 t-0.04 0.48 l-8.68 0 q0.24 1.16 1.2 1.58 t1.8 0.42 q1.08 0 1.72 -0.39 t1.1 -0.89 l2.32 1.34 q-1.88 2.56 -5.14 2.56 q-1.28 0 -2.65 -0.54 z M19.06 12.05 q-0.78 0.61 -0.88 1.49 l5.5 0 q-0.06 -0.52 -0.4 -1 t-0.91 -0.79 t-1.29 -0.31 q-1.24 0 -2.02 0.61 z M27.44 9.04 l3.32 0 l2.56 5.38 l2.56 -5.38 l3.34 0 l-5.9 11.44 z M44.48 16.08 q0 0.7 0.24 1.17 t1.12 0.47 q0.4 0 0.76 -0.04 l0 2.52 q-0.72 0.08 -1.34 0.08 q-1.28 0 -2.07 -0.21 t-1.23 -0.81 t-0.44 -1.72 l0 -6.1 l-1.34 0 l0 -2.62 l1.34 0 l0 -2.94 l2.96 0 l0 2.94 l2.2 0 l0 2.62 l-2.2 0 l0 4.64 z M51.42999999999999 19.49 q-1.37 -0.77 -2.17 -2.09 t-0.8 -2.88 q0 -1.54 0.8 -2.86 t2.17 -2.09 t2.99 -0.77 t3 0.77 t2.19 2.09 t0.81 2.86 q0 1.56 -0.81 2.88 t-2.19 2.09 t-3 0.77 t-2.99 -0.77 z M52.89999999999999 11.83 q-0.7 0.41 -1.1 1.12 t-0.4 1.57 q0 0.9 0.39 1.61 t1.08 1.12 t1.55 0.41 q0.84 0 1.53 -0.41 t1.09 -1.13 t0.4 -1.6 q0 -0.86 -0.4 -1.57 t-1.09 -1.12 t-1.53 -0.41 q-0.82 0 -1.52 0.41 z M71.2 18.9 q-0.38 0.52 -1.31 0.93 t-2.03 0.41 q-1.7 0 -2.95 -0.76 t-1.91 -2.07 t-0.66 -2.91 t0.66 -2.91 t1.91 -2.07 t2.95 -0.76 q1.14 0 2.01 0.39 t1.33 0.99 l0 -5.26 l2.96 0 l0 15.12 l-2.96 0 l0 -1.1 z M70.5 12.25 q-0.82 -0.87 -2.2 -0.87 q-1.4 0 -2.21 0.87 t-0.81 2.25 q0 1.34 0.83 2.22 t2.19 0.88 q1.4 0 2.21 -0.83 t0.81 -2.27 q0 -1.38 -0.82 -2.25 z M85.46 18.9 q-0.38 0.52 -1.31 0.93 t-2.03 0.41 q-1.7 0 -2.95 -0.76 t-1.91 -2.07 t-0.66 -2.91 t0.66 -2.91 t1.91 -2.07 t2.95 -0.76 q1.14 0 2.01 0.39 t1.33 0.99 l0 -1.14 l2.96 0 l0 11 l-2.96 0 l0 -1.1 z M84.75999999999999 12.25 q-0.82 -0.87 -2.2 -0.87 q-1.4 0 -2.21 0.87 t-0.81 2.25 q0 1.34 0.83 2.22 t2.19 0.88 q1.4 0 2.21 -0.83 t0.81 -2.27 q0 -1.38 -0.82 -2.25 z M93 24.12 l1.9 -4.52 l-4.72 -10.56 l3.46 0 l2.78 7 l2.56 -7 l3.46 0 l-6.14 15.08 l-3.3 0 z"></path></g>
			</g>
		</svg>
	