<svg xmlns="http://www.w3.org/2000/svg" xmlns:xlink="http://www.w3.org/1999/xlink" version="1.1" width="320" height="87.47276730098127" viewBox="0 0 320 87.47276730098127" class="css-1j8o68f">
    <defs id="SvgjsDefs3567">
        <linearGradient id="SvgjsLinearGradient3572">
            <stop id="SvgjsStop3573" stop-color="#7f00ff" offset="0"></stop>
            <stop id="SvgjsStop3574" stop-color="#e100ff" offset="1"></stop>
        </linearGradient>
    </defs>
    <g id="SvgjsG3568" featurekey="symbolFeature-0" transform="matrix(1.0893245825233682,0,0,1.0893245825233682,-4.030500747564287,-11.437908116495366)" fill="url(#SvgjsLinearGradient3572)">
        <path xmlns="http://www.w3.org/2000/svg" fill="url(#SvgjsLinearGradient3572)" d="M86.2,10.5H13c-5.1,0-9.3,4.2-9.3,9.3v61.7c0,5.1,4.2,9.3,9.3,9.3h73.2c5.1,0,9.3-4.2,9.3-9.3V19.8  C95.4,14.7,91.3,10.5,86.2,10.5z M13,13.5h73.2c3.5,0,6.3,2.8,6.3,6.3v5.8H6.7v-5.8C6.7,16.3,9.5,13.5,13,13.5z M86.2,87.8H13  c-3.5,0-6.3-2.8-6.3-6.3V28.6h85.7v52.9C92.4,84.9,89.6,87.8,86.2,87.8z"></path>
        <path xmlns="http://www.w3.org/2000/svg" fill="url(#SvgjsLinearGradient3572)" d="M84.2,24.7c2.8,0,5.1-2.3,5.1-5.1s-2.3-5.1-5.1-5.1s-5.1,2.3-5.1,5.1S81.4,24.7,84.2,24.7z M84.2,17.6  c1.1,0,2.1,0.9,2.1,2.1c0,1.1-0.9,2.1-2.1,2.1c-1.1,0-2.1-0.9-2.1-2.1C82.1,18.5,83.1,17.6,84.2,17.6z"></path>
        <path xmlns="http://www.w3.org/2000/svg" fill="url(#SvgjsLinearGradient3572)" d="M73.2,24.7c2.8,0,5.1-2.3,5.1-5.1s-2.3-5.1-5.1-5.1s-5.1,2.3-5.1,5.1S70.4,24.7,73.2,24.7z M73.2,17.6  c1.1,0,2.1,0.9,2.1,2.1c0,1.1-0.9,2.1-2.1,2.1c-1.1,0-2.1-0.9-2.1-2.1C71.1,18.5,72.1,17.6,73.2,17.6z"></path>
        <path xmlns="http://www.w3.org/2000/svg" fill="url(#SvgjsLinearGradient3572)" d="M62.2,24.7c2.8,0,5.1-2.3,5.1-5.1s-2.3-5.1-5.1-5.1s-5.1,2.3-5.1,5.1S59.4,24.7,62.2,24.7z M62.2,17.6  c1.1,0,2.1,0.9,2.1,2.1c0,1.1-0.9,2.1-2.1,2.1s-2.1-0.9-2.1-2.1C60.1,18.5,61.1,17.6,62.2,17.6z"></path>
        <path xmlns="http://www.w3.org/2000/svg" fill="url(#SvgjsLinearGradient3572)" d="M29.2,47c-0.4-0.3-1-0.3-1.5,0l-14.4,7.5c-0.5,0.3-0.8,0.8-0.8,1.3v4.3c0,0.6,0.3,1.1,0.8,1.3l14.4,7.5  c0.2,0.1,0.5,0.2,0.7,0.2c0.3,0,0.5-0.1,0.8-0.2c0.4-0.3,0.7-0.8,0.7-1.3v-4.8c0-0.6-0.3-1.1-0.8-1.3l-6.7-3.5l6.7-3.5  c0.5-0.3,0.8-0.8,0.8-1.3v-4.8C29.9,47.8,29.7,47.3,29.2,47z M26.9,52.2l-8.5,4.4c-0.5,0.3-0.8,0.8-0.8,1.3s0.3,1.1,0.8,1.3l8.5,4.4  v1.4l-11.4-5.9v-2.4l11.4-5.9V52.2z"></path>
        <path xmlns="http://www.w3.org/2000/svg" fill="url(#SvgjsLinearGradient3572)" d="M60.2,40.3h-4.4c-0.5,0-1.1,0.3-1.3,0.8l-16,29.4c-0.3,0.5-0.2,1,0,1.5c0.3,0.5,0.8,0.7,1.3,0.7h4.4  c0.5,0,1.1-0.3,1.3-0.8l16-29.4c0.3-0.5,0.2-1,0-1.5C61.2,40.5,60.7,40.3,60.2,40.3z M43.3,69.7h-1l14.4-26.4h1L43.3,69.7z"></path>
        <path xmlns="http://www.w3.org/2000/svg" fill="url(#SvgjsLinearGradient3572)" d="M85.8,54.5L71.4,47c-0.5-0.2-1-0.2-1.5,0c-0.4,0.3-0.7,0.8-0.7,1.3v4.8c0,0.6,0.3,1.1,0.8,1.3l6.7,3.5  L70,61.4c-0.5,0.3-0.8,0.8-0.8,1.3v4.8c0,0.5,0.3,1,0.7,1.3c0.2,0.1,0.5,0.2,0.8,0.2c0.2,0,0.5-0.1,0.7-0.2l14.4-7.5  c0.5-0.3,0.8-0.8,0.8-1.3v-4.3C86.6,55.2,86.3,54.7,85.8,54.5z M83.6,59.2l-11.4,5.9v-1.4l8.5-4.4c0.5-0.3,0.8-0.8,0.8-1.3  s-0.3-1.1-0.8-1.3l-8.5-4.4v-1.4l11.4,5.9V59.2z"></path>
    </g>
    <g id="SvgjsG3569" featurekey="nameFeature-0" transform="matrix(0.8198065543744177,0,0,0.8198065543744177,119.34415538196323,21.06492877355133)" fill="#111111">
        <path d="M29.6 12.120000000000001 l0 23.76 l-4.12 4.12 l-24.68 0 l0 -1.6 l3.2 0 l0 -28.8 l-3.2 0 l0 -1.6 l24.68 0 z M13.2 9.600000000000001 l0 28.8 l7.2 0 l0 -28.8 l-7.2 0 z M37.32 40 l15.56 0 l3.72 -3.72 l-1.24 -1.24 l-3.36 3.36 l-9.2 0 l0 -8.4 l9.88 0 l3.72 -3.72 l0 -6.56 l-3.72 -3.72 l-15.36 0 l-3.72 3.72 l0 16.56 z M42.8 17.6 l4.4 0 l0 10.8 l-4.4 0 l0 -10.8 z M87.96000000000001 17.6 l-2.72 0 l-7.28 22.4 l-9.16 0 l-7.28 -22.4 l-2.72 0 l0 -1.6 l14.76 0 l0 1.6 l-2.88 0 l6.32 19.44 l6.32 -19.44 l-2.88 0 l0 -1.6 l7.52 0 l0 1.6 z M102.96000000000001 17.2 l0 -7.6 l7.2 0 l0 28.8 l-3.2 0 l0 1.6 l15.6 0 l0 -1.6 l-3.2 0 l0 -28.8 l7.2 0 l0 7.6 l1.8 0 l0 -9.2 l-27.2 0 l0 9.2 l1.8 0 z M155.32000000000002 20.12 l0 15.76 l-4.12 4.12 l-14.72 0 l-4.12 -4.12 l0 -15.76 l4.12 -4.12 l14.72 0 z M141.96 17.6 l0 20.8 l3.76 0 l0 -20.8 l-3.76 0 z M187.36 38.4 l0 1.6 l-8.68 0 l-2.8 -2.84 l-2.84 2.84 l-10 0 l-3.72 -3.72 l0 -16.56 l3.72 -3.72 l9.76 0 l2.16 2.16 l0 -11.76 l-3.2 0 l0 -1.6 l8.68 0 l3.72 3.72 l0 29.88 l3.2 0 z M174.96000000000004 35.6 l0 -14.96 l-3.04 -3.04 l-3.2 0 l0 20.8 l3.44 0 z M193.48000000000002 40 l8.76 0 l2.44 -2.44 l2.4 2.44 l9.08 0 l0 -1.6 l-3.2 0 l0 -19.08 l-3.32 -3.32 l-15.16 0 l-3.32 3.32 l0 4.68 l8.4 0 l0 -6.4 l4.2 0 l0 9.6 l-10.28 0 l-3.32 3.32 l0 6.16 z M199.56000000000003 28.8 l4.2 0 l0 7.2 l-2.4 2.4 l-1.8 0 l0 -9.6 z M244.76000000000002 19.72 l0 26.56 l-3.72 3.72 l-17.36 0 l-3.32 -3.32 l0 -4.68 l9.2 0 l0 6.4 l6 0 l0 -12.72 l-1.92 1.92 l-8.96 0 l-3.72 -3.72 l0 -16.28 l-3.2 0 l0 -1.6 l8.48 0 l3.72 3.72 l0 16.28 l2.8 0 l2.8 -2.8 l0 -15.6 l-2.8 0 l0 -1.6 l8.28 0 z"></path>
    </g>
</svg>